# xmcd
#
# Track frame offsets:
#	150
#	10516
#	40888
#	80454
#	107204
#	157025
#	185724
#	216208
#
# Disc length: 3356
#
# Revision: 2
# Processed by: cddbd v1.5.1PL0 Copyright (c) Steve Scherf et al.
# Submitted via: CDex 1.30Release
# Normalized: r1:TRMNUM
#
DISCID=640d1a08
DTITLE=RFK 7.19.00 - Disk 1
DYEAR=1900
DGENRE=Blues
TTITLE0=Intro
TTITLE1=Rain
TTITLE2=True Reflections
TTITLE3=Too Much
TTITLE4=#41
TTITLE5=Crash
TTITLE6=Drive In, Drive Out
TTITLE7=Grey Street
EXTD=ID3G:   0
EXTT0=
EXTT1=
EXTT2=
EXTT3=
EXTT4=
EXTT5=
EXTT6=
EXTT7=
PLAYORDER=
